<?xml version="1.0" encoding="utf-8"?>
<!-- Generator: Adobe Illustrator 24.2.3, SVG Export Plug-In . SVG Version: 6.00 Build 0)  -->
<svg version="1.1" id="Layer_1" xmlns="http://www.w3.org/2000/svg" xmlns:xlink="http://www.w3.org/1999/xlink" x="0px" y="0px"
	 viewBox="0 0 1236.52 302.36" style="enable-background:new 0 0 1236.52 302.36;" xml:space="preserve">
<style type="text/css">
	.st0{fill:#1D252C;}
	.st1{fill:#20829B;}
</style>
<g>
	<g>
		<g>
			<path class="st0" d="M377.35,144.91c0,14.04,10.93,23.16,27.86,23.16c12.16,0,19.54-2.97,26.12-9.41l1.01,0.29l-2.32,9.55
				c-0.22,1.01-0.65,1.16-2.17,1.66c-6.88,2.03-13.97,3.18-22.72,3.18c-23.73,0-44.14-8.9-44.14-28.44
				c0-17.44,16.86-27.14,43.85-27.14c8.47,0,15.85,1.16,23.23,3.76c0.87,0.29,1.67,0.8,1.96,1.74l1.88,11.07l-0.94,0.22
				c-4.2-6.44-12.3-11.51-26.05-11.51C389.58,123.05,377.35,130.14,377.35,144.91z"/>
			<path class="st0" d="M459.64,171.24c-3.98,0-8.68,0.22-12.74,0.36c0.51-4.56,1.09-10.71,1.09-23.08c0-15.27-0.51-17.94-1.09-22.5
				c2.53,0.14,5.21,0.36,7.67,0.36c2.53,0,5.21-0.22,7.67-0.36c-0.5,4.56-1.08,7.24-1.08,22.5c0,7.82,0.22,13.1,0.43,17.01h20.55
				c5.14,0,7.38-0.14,12.52-5.57l0.87,0.36l-5.14,10.28c-0.43,0.79-0.79,1.01-2.1,1.01C467.24,171.61,463.47,171.24,459.64,171.24z"
				/>
			<path class="st0" d="M539.68,124.57c18.31,0,34.66,8.25,34.66,23.3c0,14.11-14.11,25.18-36.54,25.18
				c-18.02,0-34.59-8.32-34.59-23.44C503.21,135.21,517.46,124.57,539.68,124.57z M518.98,148.74c0,12.01,7.89,19.18,19.83,19.18
				c10.93,0,19.76-6.15,19.76-18.96c0-11.94-7.96-19.25-19.83-19.25C527.88,129.71,518.98,135.93,518.98,148.74z"/>
			<path class="st0" d="M610.82,171.24c-2.46,0-5.14,0.22-7.67,0.36c0.51-4.56,1.16-10.71,1.16-23.08c0-8.83-0.22-13.17-0.43-16.43
				h-14.26c-2.75,0-4.7,1.16-6.87,4.27l-0.87-0.29l1.67-9.7c0.07-0.36,0.22-0.36,0.58-0.36h53.25c0.29,0,0.58,0,0.65,0.36l1.67,9.7
				l-0.87,0.29c-2.17-3.11-4.05-4.27-6.87-4.27h-14.18c-0.22,3.26-0.36,7.6-0.36,16.43c0,12.37,0.65,18.52,1.16,23.08
				C616.03,171.46,613.35,171.24,610.82,171.24z"/>
			<path class="st0" d="M702.94,171.24c-2.46,0-5.14,0.22-7.67,0.36c0.43-4.12,1.01-9.62,1.09-20.04h-30.83
				c0.07,10.35,0.65,15.92,1.08,20.04c-2.46-0.14-5.14-0.36-7.67-0.36c-2.46,0-5.14,0.22-7.67,0.36c0.51-4.56,1.09-10.71,1.09-23.08
				c0-15.27-0.51-17.94-1.09-22.5c2.53,0.14,5.21,0.36,7.67,0.36c2.53,0,5.21-0.22,7.67-0.36c-0.5,4.27-1.01,6.95-1.08,19.47h30.83
				c-0.07-12.52-0.58-15.2-1.09-19.47c2.53,0.14,5.21,0.36,7.67,0.36c2.53,0,5.21-0.22,7.67-0.36c-0.5,4.56-1.08,7.24-1.08,22.5
				c0,12.37,0.65,18.52,1.08,23.08C708.15,171.46,705.47,171.24,702.94,171.24z"/>
			<path class="st0" d="M771.77,127.1l1.74,8.18l-0.79,0.22c-1.67-2.75-4.41-3.4-8.32-3.4h-23.8c-0.07,4.41-0.36,8.83-0.36,13.24
				h13.31c3.04,0,9.19-0.29,11.58-0.87c-0.22,1.59-0.29,2.68-0.29,3.91c0,1.3,0.07,2.24,0.29,3.91c-2.39-0.65-8.54-0.87-11.58-0.87
				h-13.31c0,4.7,0.29,9.41,0.36,14.11h21.2c6.22,0,9.33-0.72,14.18-5.72l0.8,0.36l-4.85,10.13c-0.58,1.23-0.87,1.3-2.24,1.3
				c-19.9,0-24.75-0.36-29.96-0.36c-4.41,0-9.7,0.22-14.18,0.36c0.51-4.56,1.09-10.71,1.09-23.08c0-15.27-0.51-17.94-1.09-22.5
				c4.49,0.14,9.84,0.36,14.33,0.36c4.99,0,9.84-0.36,30.68-0.36C771.33,126.02,771.55,126.31,771.77,127.1z"/>
			<path class="st0" d="M834.58,136.87l-0.94,0.29c-3.91-4.41-11.07-7.16-19.03-7.16c-9.04,0-14.76,2.39-14.76,6.37
				c0,10.78,37.99-1.01,37.99,21.27c0,14.4-18.81,15.41-28.37,15.41c-9.99,0-15.77-1.88-20.55-3.91l-2.53-10.71l0.87-0.29
				c2.39,4.85,12.37,9.48,22.21,9.48c11,0,16.5-2.97,16.5-7.6c0-10.93-37.99,1.59-37.99-21.06c0-13.97,17.8-14.4,26.63-14.4
				c8.9,0,15.41,2.1,18.16,3.33L834.58,136.87z"/>
			<path class="st0" d="M904.57,144.91c0,14.04,10.93,23.16,27.86,23.16c12.16,0,19.54-2.97,26.12-9.41l1.01,0.29l-2.32,9.55
				c-0.22,1.01-0.65,1.16-2.17,1.66c-6.88,2.03-13.97,3.18-22.72,3.18c-23.73,0-44.14-8.9-44.14-28.44
				c0-17.44,16.86-27.14,43.85-27.14c8.47,0,15.85,1.16,23.23,3.76c0.87,0.29,1.67,0.8,1.96,1.74l1.88,11.07l-0.94,0.22
				c-4.2-6.44-12.3-11.51-26.05-11.51C916.8,123.05,904.57,130.14,904.57,144.91z"/>
			<path class="st0" d="M1011.46,130c8.76,15.7,14.04,25.83,24.82,41.61c-8.1-0.51-9.62-0.51-17.73,0
				c-1.59-3.69-3.33-7.38-5.14-11.07h-28.87c-2.17,3.98-4.12,7.74-5.57,11.07c-2.32-0.51-8.9-0.51-11.22,0
				c8.54-10.85,20.55-29.02,28.51-41.46c-0.14-0.22-0.29-0.43-0.36-0.65c-1.09-1.74-2.39-2.1-5.86-2.53v-0.94
				c2.61,0,6.44,0.36,9.04,0.36c2.24,0,4.63-0.36,6.01-0.36C1008.49,126.02,1009.65,126.67,1011.46,130z M999.59,135.57
				c-3.47,5.5-7.67,12.23-11.58,18.89h22.36C1007.11,148.31,1003.57,142.16,999.59,135.57z"/>
			<path class="st0" d="M1065.16,171.24c-2.46,0-5.14,0.22-7.67,0.36c0.51-4.56,1.16-10.71,1.16-23.08c0-8.83-0.22-13.17-0.43-16.43
				h-14.26c-2.75,0-4.7,1.16-6.87,4.27l-0.87-0.29l1.67-9.7c0.07-0.36,0.22-0.36,0.58-0.36h53.25c0.29,0,0.58,0,0.65,0.36l1.67,9.7
				l-0.87,0.29c-2.17-3.11-4.05-4.27-6.87-4.27h-14.18c-0.22,3.26-0.36,7.6-0.36,16.43c0,12.37,0.65,18.52,1.16,23.08
				C1070.37,171.46,1067.69,171.24,1065.16,171.24z"/>
			<path class="st0" d="M1116.76,148.38c0,11.94,8.47,19.61,22.14,19.61c11.43,0,17.22-2.75,23.3-8.76l0.87,0.29l-2.17,9.48
				c-0.22,0.87-0.58,1.01-1.95,1.45c-6.08,1.74-12.16,2.61-20.04,2.61c-19.9,0-37.34-7.31-37.34-24.75
				c0-15.27,14.04-23.73,37.05-23.73c7.02,0,13.89,1.01,20.19,3.11c0.8,0.29,1.37,0.72,1.66,1.59l1.81,10.93l-0.94,0.22
				c-3.55-5.86-10.71-10.64-22.58-10.64C1126.45,129.78,1116.76,135.72,1116.76,148.38z"/>
			<path class="st0" d="M1228.85,171.24c-2.46,0-5.14,0.22-7.67,0.36c0.43-4.12,1.01-9.62,1.09-20.04h-30.83
				c0.07,10.35,0.65,15.92,1.08,20.04c-2.46-0.14-5.14-0.36-7.67-0.36c-2.46,0-5.14,0.22-7.67,0.36c0.51-4.56,1.09-10.71,1.09-23.08
				c0-15.27-0.51-17.94-1.09-22.5c2.53,0.14,5.21,0.36,7.67,0.36c2.53,0,5.21-0.22,7.67-0.36c-0.5,4.27-1.01,6.95-1.08,19.47h30.83
				c-0.07-12.52-0.58-15.2-1.09-19.47c2.53,0.14,5.21,0.36,7.67,0.36c2.53,0,5.21-0.22,7.67-0.36c-0.5,4.56-1.08,7.24-1.08,22.5
				c0,12.37,0.65,18.52,1.08,23.08C1234.06,171.46,1231.39,171.24,1228.85,171.24z"/>
		</g>
		<g>
			<path class="st1" d="M492.05,209.63h14.81c3.98,0,7.11,1.14,9.1,3.08c1.44,1.49,2.23,3.33,2.23,5.57v0.1
				c0,4.52-2.78,6.86-5.52,8.05c4.13,1.24,7.45,3.63,7.45,8.4v0.1c0,5.96-5.02,9.49-12.62,9.49h-15.45V209.63z M514.22,218.82
				c0-3.43-2.74-5.67-7.71-5.67h-10.58v11.98h10.28c4.72,0,8-2.14,8-6.21V218.82z M506.91,228.61h-10.98v12.27h11.67
				c5.27,0,8.55-2.34,8.55-6.21v-0.1C516.15,230.8,512.97,228.61,506.91,228.61z"/>
			<path class="st1" d="M535.89,209.63h25.14v3.58h-21.22v11.88h18.98v3.58h-18.98v12.18h21.47v3.58h-25.39V209.63z"/>
			<path class="st1" d="M575.59,227.12v-0.1c0-9.84,7.35-17.99,17.59-17.99c6.31,0,10.09,2.24,13.57,5.52l-2.68,2.88
				c-2.93-2.78-6.21-4.77-10.93-4.77c-7.7,0-13.47,6.26-13.47,14.26v0.1c0,8.05,5.81,14.36,13.47,14.36c4.77,0,7.9-1.84,11.23-5.02
				l2.58,2.53c-3.63,3.68-7.6,6.11-13.91,6.11C583,245.01,575.59,237.11,575.59,227.12z"/>
			<path class="st1" d="M634.63,209.38h3.68l15.85,35.03h-4.23l-4.07-9.19h-18.93l-4.13,9.19h-4.02L634.63,209.38z M644.33,231.64
				l-7.9-17.69l-7.95,17.69H644.33z"/>
			<path class="st1" d="M667.19,229.85v-20.23h3.93v19.98c0,7.51,4.02,11.73,10.63,11.73c6.41,0,10.49-3.88,10.49-11.48v-20.23h3.92
				v19.93c0,10.14-5.81,15.41-14.51,15.41C673.05,244.96,667.19,239.69,667.19,229.85z"/>
			<path class="st1" d="M711.12,239.35l2.43-2.88c3.63,3.28,7.11,4.92,11.93,4.92c4.67,0,7.75-2.49,7.75-5.91v-0.1
				c0-3.23-1.74-5.07-9.04-6.61c-8-1.74-11.68-4.32-11.68-10.04v-0.1c0-5.47,4.82-9.49,11.43-9.49c5.07,0,8.7,1.44,12.23,4.27
				l-2.29,3.03c-3.23-2.63-6.46-3.78-10.04-3.78c-4.52,0-7.41,2.49-7.41,5.62v0.1c0,3.28,1.79,5.12,9.44,6.76
				c7.75,1.69,11.33,4.52,11.33,9.84v0.1c0,5.96-4.97,9.84-11.88,9.84C719.82,244.91,715.29,243.07,711.12,239.35z"/>
			<path class="st1" d="M753.16,209.63h25.14v3.58h-21.22v11.88h18.98v3.58h-18.98v12.18h21.47v3.58h-25.39V209.63z"/>
			<path class="st1" d="M814.59,209.63h4.28l9.94,28.97l9.54-29.07h3.23l9.54,29.07l9.94-28.97h4.13l-12.42,35.03h-3.33l-9.54-28.23
				l-9.59,28.23h-3.28L814.59,209.63z"/>
			<path class="st1" d="M880.24,209.63h25.14v3.58h-21.22v11.88h18.98v3.58h-18.98v12.18h21.47v3.58h-25.39V209.63z"/>
			<path class="st1" d="M942.81,227.12v-0.1c0-9.84,7.35-17.99,17.59-17.99c6.31,0,10.09,2.24,13.57,5.52l-2.68,2.88
				c-2.93-2.78-6.21-4.77-10.93-4.77c-7.7,0-13.47,6.26-13.47,14.26v0.1c0,8.05,5.81,14.36,13.47,14.36c4.77,0,7.9-1.84,11.23-5.02
				l2.58,2.53c-3.63,3.68-7.6,6.11-13.91,6.11C950.21,245.01,942.81,237.11,942.81,227.12z"/>
			<path class="st1" d="M1001.85,209.38h3.68l15.85,35.03h-4.23l-4.07-9.19h-18.93l-4.13,9.19H986L1001.85,209.38z M1011.54,231.64
				l-7.9-17.69l-7.95,17.69H1011.54z"/>
			<path class="st1" d="M1036.19,209.63h14.96c4.28,0,7.71,1.29,9.89,3.48c1.69,1.69,2.68,4.12,2.68,6.86v0.1
				c0,5.76-3.97,9.14-9.44,10.14l10.69,14.21h-4.82l-10.09-13.52h-9.94v13.52h-3.93V209.63z M1050.8,227.37
				c5.22,0,8.95-2.68,8.95-7.16v-0.1c0-4.27-3.28-6.86-8.9-6.86h-10.73v14.11H1050.8z"/>
			<path class="st1" d="M1080.08,209.63h25.14v3.58H1084v11.88h18.98v3.58H1084v12.18h21.47v3.58h-25.39V209.63z"/>
		</g>
	</g>
	<g>
		<g>
			<g>
				<path class="st1" d="M250.35,177.12l-17.5,17.5l-44.04-44.04l44.04-44.04l12.76,12.76l20.72-7.77l-33.47-33.47l-72.49,72.52
					l72.49,72.49l38.19-38.19L250.35,177.12z"/>
			</g>
			<g>
				<path class="st1" d="M60.54,78.06L27.1,111.54l20.69,7.77l12.76-12.76l44.04,44.04l-44.04,44.04l-17.5-17.5l-20.69,7.77
					l38.19,38.19l72.49-72.49L60.54,78.06z"/>
			</g>
		</g>
		<g>
			<g>
				<path class="st1" d="M146.77,169.72l-72.49,72.49l38.19,38.22l7.79-20.69l-17.53-17.53l44.04-44.04l44.07,44.04l-12.78,12.76
					l7.76,20.72l33.47-33.47L146.77,169.72z"/>
			</g>
			<g>
				<path class="st1" d="M185.81,27.17l-7.76,20.69l12.78,12.78l-44.07,44.04l-44.04-44.04l17.5-17.53l-7.77-20.69L74.27,60.65
					l72.49,72.49l72.52-72.49L185.81,27.17z"/>
			</g>
		</g>
		<g>
			<rect x="136.73" y="234.27" class="st1" width="20.11" height="68.08"/>
		</g>
		<g>
			<rect x="224.57" y="140.52" class="st1" width="68.08" height="20.11"/>
		</g>
		<g>
			<rect y="140.52" class="st1" width="68.08" height="20.11"/>
		</g>
		<g>
			<rect x="136.73" class="st1" width="20.11" height="68.08"/>
		</g>
	</g>
</g>
</svg>
