<svg id="Capa_1" enable-background="new 0 0 512 512" viewBox="0 0 512 512" xmlns="http://www.w3.org/2000/svg"><g><path d="m415.794 157.981h-38.012c-2.883-6.86-7.196-13.148-12.783-18.43h16.016c7.784 0 14.117-6.333 14.117-14.117v-37.898c0-7.784-6.333-14.117-14.117-14.117h-22.195c-4.033 0-7.302 3.269-7.302 7.302s3.269 7.302 7.302 7.302h21.708v36.925h-46.805c-18.919-.406-35.403 16.631-34.367 35.538l.414 11.538-50.233-21.747c-6.419-2.779-13.062-4.482-19.722-5.213l15.575-18.934c19.92-24.217 49.33-38.107 80.689-38.107 4.033 0 7.302-3.269 7.302-7.302s-3.269-7.302-7.302-7.302c-21.209 0-41.636 5.575-59.484 15.875v-12.876c0-5.632 4.582-10.214 10.214-10.214h15.04c7.784 0 14.117-6.333 14.117-14.117v-37.97c0-7.784-6.333-14.117-14.117-14.117h-15.04c-25.386 0-47.909 12.45-61.814 31.557v-16.143c0-7.784-6.333-14.117-14.117-14.117h-37.97c-7.784 0-14.117 6.333-14.117 14.117v70.297c-2.587-.318-5.229-.351-7.884-.085-10.598 1.054-20.063 6.744-25.968 15.607l-11.447 17.184c-2.235 3.356-1.327 7.889 2.029 10.126 3.356 2.236 7.889 1.326 10.126-2.029l11.446-17.184c3.47-5.208 9.033-8.552 15.262-9.172 6.225-.621 12.339 1.56 16.769 5.982l31.074 31.025c3.476 3.47 6.367 7.363 8.671 11.61-14.56 5.265-27.39 15.408-35.769 29.572l-25.312 42.785c-6.159 10.411-11.166 21.354-15.016 32.631l-19.047-42.262c-8.349-18.522-9.29-39.297-2.651-58.5 1.318-3.812-.704-7.969-4.514-9.287-3.813-1.322-7.97.705-9.287 4.514-7.863 22.739-6.749 47.341 3.138 69.274l26.435 58.153c-7.065 34.696-3.727 71.262 10.392 104.498 16.985 39.982 47.981 72.199 87.277 90.719l75.161 35.424c15.141 7.137 32.707 7.593 48.188 1.277 15.491-6.322 27.715-18.942 33.538-34.627l4.505-12.135c1.403-3.781-.524-7.984-4.304-9.387-3.782-1.405-7.984.524-9.387 4.304l-4.505 12.135c-4.469 12.037-13.477 21.337-25.364 26.188-11.885 4.852-24.83 4.508-36.445-.965l-75.161-35.424c-36.047-16.989-64.48-46.544-80.061-83.219-20.054-47.203-16.436-101.735 9.678-145.875l5.499-9.296c7.355 7.787 17.329 12.355 28.014 12.636v23.358c0 4.033 3.269 7.302 7.302 7.302s7.302-3.269 7.302-7.302v-23.329h12.84c4.033 0 7.302-3.269 7.302-7.302s-3.269-7.302-7.302-7.302h-26.261c-6.761 0-13.116-2.633-17.895-7.413l-3.625-3.625 12.136-20.513c13.848-23.406 43.109-32.912 68.068-22.104l29.238 12.658v56.748c-8.481 4.947-14.197 14.137-14.197 24.644 0 7.671-6.241 13.912-13.912 13.912h-9.687c-7.616 0-14.776 2.965-20.164 8.352l-13.535 13.535h-11.144c-6.723 0-12.193-5.47-12.193-12.193v-6.139c0-4.033-3.269-7.302-7.302-7.302s-7.302 3.269-7.302 7.302v6.139c0 13.673 10.296 24.979 23.541 26.592l-11.794 11.794c-2.851 2.852-2.851 7.475 0 10.327 2.853 2.851 7.474 2.851 10.327 0l39.727-39.728c2.629-2.628 6.122-4.075 9.838-4.075h9.687c14.097 0 25.831-10.285 28.108-23.744v32.861c0 7.106-2.768 13.787-7.792 18.812l-20.716 20.716c-2.851 2.852-2.851 7.475 0 10.327 2.853 2.851 7.474 2.851 10.327 0l9.413-9.413 12.767 12.766c4.828 4.829 7.756 11.05 8.41 17.758l-19.1 19.1c-8.483 7.947-10.425 19.742-9.705 30.872 0 6.115-4.974 11.09-11.09 11.09-4.033 0-7.302 3.269-7.302 7.302s3.269 7.302 7.302 7.302c14.167 0 25.693-11.526 25.693-25.693v-7.442c0-4.95 1.928-9.604 5.429-13.103l8.913-8.913v4.38c0 11.699 4.556 22.697 12.828 30.967 5.513 5.514 8.55 12.846 8.55 20.643v15.916c0 4.033 3.269 7.302 7.302 7.302s7.302-3.269 7.302-7.302v-15.918c0-11.697-4.555-22.696-12.828-30.969-5.513-5.513-8.55-12.844-8.55-20.641v-22.009c0-11.697-4.555-22.696-12.828-30.969l-12.767-12.766c8.326-7.874 13.073-18.639 13.046-30.116v-51.544h38.907v11.187l-22.411 22.411c-2.851 2.852-2.851 7.475 0 10.327 2.853 2.851 7.474 2.851 10.327 0l12.084-12.084v65.527c0 17.817 6.939 34.568 19.536 47.166l9.735 9.735c2.853 2.851 7.474 2.851 10.327 0 2.851-2.852 2.851-7.475 0-10.327l-9.735-9.735c-3.721-3.721-6.808-7.907-9.211-12.426h21.448c4.033 0 7.302-3.269 7.302-7.302s-3.269-7.302-7.302-7.302h-26.571c-.607-3.201-.926-6.48-.926-9.81v-34.799c6.284 6.6 14.851 10.339 23.976 10.322h10.883c4.033 0 7.302-3.269 7.302-7.302s-3.269-7.302-7.302-7.302h-10.883c-4.905 0-9.517-1.91-12.986-5.379l-10.991-10.99v-77.591c25.446 16.842 44.799 41.868 54.522 71.244 9.748 29.453 9.17 61.69-1.629 90.774l-21.275 57.307c-1.403 3.78.524 7.984 4.304 9.387 3.777 1.4 7.983-.525 9.387-4.304l21.275-57.307c11.948-32.182 12.588-67.854 1.802-100.445-6.203-18.744-15.956-35.882-28.493-50.614h34.814c7.784 0 14.117-6.333 14.117-14.117v-37.97c0-7.783-6.333-14.116-14.117-14.116zm-138.985-143.377h14.553v36.996h-14.553c-13.684 0-24.818 11.133-24.818 24.818v22.838c-6.49 5.169-12.492 11.047-17.879 17.596l-19.117 23.24v-63.674c0-34.084 27.73-61.814 61.814-61.814zm-107.368 81.201c-1.855-1.852-3.884-3.471-6.046-4.847v-75.057h36.996v110.806zm144.51 64.179c-.595-10.865 8.894-20.67 19.772-20.433h8.68l10.722 8.967c11.443 9.571 16.55 24.566 13.327 39.132l-4.024 18.184c-10.993-9.144-23.319-16.781-36.687-22.568l-11.127-4.817zm12.533 69.228h-38.907v-46.554c4.985 2.222 34.718 14.848 38.907 17.053zm88.823-19.631h-38.75l4.155-18.776c1.349-6.095 1.625-12.245.917-18.22h33.678z"/></g></svg>