<svg version="1.1" id="Layer_1" xmlns="http://www.w3.org/2000/svg" xmlns:xlink="http://www.w3.org/1999/xlink" x="0px" y="0px" viewBox="0 0 1205.98 294.89" style="enable-background:new 0 0 1205.98 294.89;" xml:space="preserve">
<style type="text/css">
	.st0{fill:#FFFFFF;}
</style>
<g>
	<g>
		<g>
			<path class="st0" d="M368.03,141.33c0,13.69,10.66,22.58,27.17,22.58c11.86,0,19.06-2.89,25.48-9.17l0.99,0.28l-2.26,9.32
				c-0.21,0.99-0.64,1.13-2.12,1.62c-6.71,1.98-13.62,3.1-22.16,3.1c-23.15,0-43.05-8.68-43.05-27.73
				c0-17.01,16.44-26.47,42.77-26.47c8.26,0,15.46,1.13,22.65,3.67c0.85,0.28,1.62,0.78,1.91,1.69l1.83,10.8l-0.92,0.21
				c-4.09-6.28-12-11.22-25.41-11.22C379.96,120.01,368.03,126.93,368.03,141.33z"/>
			<path class="st0" d="M448.29,167.01c-3.88,0-8.47,0.21-12.42,0.35c0.49-4.45,1.06-10.44,1.06-22.51c0-14.89-0.49-17.5-1.06-21.95
				c2.47,0.14,5.08,0.35,7.48,0.35c2.47,0,5.08-0.21,7.48-0.35c-0.49,4.45-1.06,7.06-1.06,21.95c0,7.62,0.21,12.77,0.42,16.59h20.04
				c5.01,0,7.2-0.14,12.21-5.43l0.85,0.35l-5.01,10.02c-0.42,0.77-0.77,0.99-2.05,0.99C455.7,167.37,452.03,167.01,448.29,167.01z"
				/>
			<path class="st0" d="M526.35,121.5c17.85,0,33.8,8.04,33.8,22.72c0,13.76-13.76,24.56-35.64,24.56
				c-17.57,0-33.73-8.12-33.73-22.87C490.78,131.87,504.68,121.5,526.35,121.5z M506.16,145.07c0,11.72,7.69,18.7,19.34,18.7
				c10.66,0,19.27-6,19.27-18.49c0-11.64-7.76-18.77-19.34-18.77C514.84,126.51,506.16,132.58,506.16,145.07z"/>
			<path class="st0" d="M595.73,167.01c-2.4,0-5.01,0.21-7.48,0.35c0.49-4.45,1.13-10.44,1.13-22.51c0-8.61-0.21-12.84-0.42-16.02
				h-13.9c-2.68,0-4.59,1.13-6.7,4.16l-0.85-0.28l1.62-9.46c0.07-0.35,0.21-0.35,0.57-0.35h51.94c0.28,0,0.57,0,0.64,0.35l1.62,9.46
				l-0.85,0.28c-2.12-3.03-3.95-4.16-6.7-4.16h-13.83c-0.21,3.18-0.35,7.41-0.35,16.02c0,12.07,0.64,18.07,1.13,22.51
				C600.81,167.23,598.2,167.01,595.73,167.01z"/>
			<path class="st0" d="M685.58,167.01c-2.4,0-5.01,0.21-7.48,0.35c0.42-4.02,0.99-9.39,1.06-19.55h-30.06
				c0.07,10.09,0.64,15.53,1.06,19.55c-2.4-0.14-5.01-0.35-7.48-0.35c-2.4,0-5.01,0.21-7.48,0.35c0.49-4.45,1.06-10.44,1.06-22.51
				c0-14.89-0.49-17.5-1.06-21.95c2.47,0.14,5.08,0.35,7.48,0.35c2.47,0,5.08-0.21,7.48-0.35c-0.49,4.16-0.99,6.77-1.06,18.98h30.06
				c-0.07-12.21-0.57-14.82-1.06-18.98c2.47,0.14,5.08,0.35,7.48,0.35c2.47,0,5.08-0.21,7.48-0.35c-0.49,4.45-1.06,7.06-1.06,21.95
				c0,12.07,0.64,18.07,1.06,22.51C690.66,167.23,688.05,167.01,685.58,167.01z"/>
			<path class="st0" d="M752.7,123.96l1.69,7.98l-0.78,0.21c-1.62-2.68-4.3-3.32-8.12-3.32h-23.22c-0.07,4.3-0.35,8.61-0.35,12.92
				h12.98c2.96,0,8.96-0.28,11.29-0.85c-0.21,1.55-0.28,2.61-0.28,3.81c0,1.27,0.07,2.19,0.28,3.81c-2.33-0.64-8.33-0.85-11.29-0.85
				h-12.98c0,4.59,0.28,9.17,0.35,13.76h20.68c6.07,0,9.1-0.71,13.83-5.58l0.78,0.35l-4.73,9.88c-0.57,1.2-0.85,1.27-2.19,1.27
				c-19.41,0-24.14-0.35-29.22-0.35c-4.3,0-9.46,0.21-13.83,0.35c0.49-4.45,1.06-10.44,1.06-22.51c0-14.89-0.49-17.5-1.06-21.95
				c4.38,0.14,9.6,0.35,13.97,0.35c4.87,0,9.6-0.35,29.92-0.35C752.28,122.91,752.49,123.19,752.7,123.96z"/>
			<path class="st0" d="M813.97,133.49l-0.92,0.28c-3.81-4.3-10.8-6.99-18.56-6.99c-8.82,0-14.4,2.33-14.4,6.21
				c0,10.52,37.05-0.99,37.05,20.75c0,14.04-18.35,15.03-27.66,15.03c-9.74,0-15.38-1.84-20.04-3.81l-2.47-10.44l0.85-0.28
				c2.33,4.73,12.07,9.25,21.66,9.25c10.73,0,16.09-2.89,16.09-7.41c0-10.66-37.05,1.55-37.05-20.54
				c0-13.62,17.36-14.04,25.97-14.04c8.68,0,15.03,2.05,17.71,3.25L813.97,133.49z"/>
			<path class="st0" d="M882.22,141.33c0,13.69,10.66,22.58,27.17,22.58c11.86,0,19.06-2.89,25.48-9.17l0.99,0.28l-2.26,9.32
				c-0.21,0.99-0.64,1.13-2.12,1.62c-6.71,1.98-13.62,3.1-22.16,3.1c-23.15,0-43.05-8.68-43.05-27.73
				c0-17.01,16.44-26.47,42.77-26.47c8.26,0,15.46,1.13,22.65,3.67c0.85,0.28,1.62,0.78,1.91,1.69l1.83,10.8l-0.92,0.21
				c-4.09-6.28-12-11.22-25.41-11.22C894.15,120.01,882.22,126.93,882.22,141.33z"/>
			<path class="st0" d="M986.47,126.79c8.54,15.31,13.69,25.19,24.21,40.58c-7.9-0.49-9.39-0.49-17.29,0
				c-1.55-3.6-3.25-7.2-5.01-10.8h-28.16c-2.12,3.88-4.02,7.55-5.43,10.8c-2.26-0.49-8.68-0.49-10.94,0
				c8.33-10.59,20.04-28.3,27.8-40.44c-0.14-0.21-0.28-0.42-0.35-0.64c-1.06-1.69-2.33-2.05-5.72-2.47v-0.92
				c2.54,0,6.28,0.35,8.82,0.35c2.19,0,4.52-0.35,5.86-0.35C983.58,122.91,984.71,123.54,986.47,126.79z M974.9,132.22
				c-3.39,5.36-7.48,11.93-11.29,18.42h21.81C982.24,144.64,978.78,138.64,974.9,132.22z"/>
			<path class="st0" d="M1038.85,167.01c-2.4,0-5.01,0.21-7.48,0.35c0.49-4.45,1.13-10.44,1.13-22.51c0-8.61-0.21-12.84-0.42-16.02
				h-13.9c-2.68,0-4.59,1.13-6.7,4.16l-0.85-0.28l1.62-9.46c0.07-0.35,0.21-0.35,0.57-0.35h51.94c0.28,0,0.57,0,0.64,0.35l1.62,9.46
				l-0.85,0.28c-2.12-3.03-3.95-4.16-6.7-4.16h-13.83c-0.21,3.18-0.35,7.41-0.35,16.02c0,12.07,0.64,18.07,1.13,22.51
				C1043.93,167.23,1041.32,167.01,1038.85,167.01z"/>
			<path class="st0" d="M1089.17,144.71c0,11.64,8.26,19.13,21.6,19.13c11.15,0,16.8-2.68,22.72-8.54l0.85,0.28l-2.12,9.25
				c-0.21,0.85-0.57,0.99-1.91,1.41c-5.93,1.69-11.86,2.54-19.55,2.54c-19.41,0-36.42-7.13-36.42-24.14
				c0-14.89,13.69-23.15,36.13-23.15c6.85,0,13.55,0.99,19.69,3.03c0.78,0.28,1.34,0.71,1.62,1.55l1.77,10.66l-0.92,0.21
				c-3.46-5.72-10.44-10.38-22.02-10.38C1098.63,126.58,1089.17,132.36,1089.17,144.71z"/>
			<path class="st0" d="M1198.5,167.01c-2.4,0-5.01,0.21-7.48,0.35c0.42-4.02,0.99-9.39,1.06-19.55h-30.06
				c0.07,10.09,0.64,15.53,1.06,19.55c-2.4-0.14-5.01-0.35-7.48-0.35c-2.4,0-5.01,0.21-7.48,0.35c0.49-4.45,1.06-10.44,1.06-22.51
				c0-14.89-0.49-17.5-1.06-21.95c2.47,0.14,5.08,0.35,7.48,0.35c2.47,0,5.08-0.21,7.48-0.35c-0.49,4.16-0.99,6.77-1.06,18.98h30.06
				c-0.07-12.21-0.57-14.82-1.06-18.98c2.47,0.14,5.08,0.35,7.48,0.35c2.47,0,5.08-0.21,7.48-0.35c-0.49,4.45-1.06,7.06-1.06,21.95
				c0,12.07,0.64,18.07,1.06,22.51C1203.58,167.23,1200.97,167.01,1198.5,167.01z"/>
		</g>
		<g>
			<path class="st0" d="M479.9,204.45h14.44c3.88,0,6.93,1.11,8.87,3.01c1.4,1.45,2.18,3.25,2.18,5.43v0.1
				c0,4.41-2.71,6.69-5.38,7.85c4.02,1.21,7.27,3.54,7.27,8.19v0.1c0,5.82-4.89,9.26-12.31,9.26H479.9V204.45z M501.52,213.42
				c0-3.34-2.67-5.53-7.52-5.53h-10.32v11.68h10.03c4.61,0,7.81-2.08,7.81-6.06V213.42z M494.39,222.97h-10.71v11.97h11.39
				c5.14,0,8.34-2.28,8.34-6.06v-0.1C503.41,225.1,500.3,222.97,494.39,222.97z"/>
			<path class="st0" d="M522.65,204.45h24.52v3.49h-20.69v11.58h18.51v3.49h-18.51v11.87h20.94v3.49h-24.77V204.45z"/>
			<path class="st0" d="M561.37,221.51v-0.1c0-9.6,7.17-17.55,17.16-17.55c6.16,0,9.84,2.18,13.23,5.38l-2.62,2.81
				c-2.86-2.71-6.06-4.65-10.66-4.65c-7.51,0-13.13,6.11-13.13,13.91v0.1c0,7.85,5.67,14.01,13.13,14.01c4.65,0,7.71-1.79,10.95-4.9
				l2.52,2.47c-3.54,3.59-7.41,5.96-13.57,5.96C568.6,238.96,561.37,231.25,561.37,221.51z"/>
			<path class="st0" d="M618.96,204.21h3.59L638,238.38h-4.12l-3.97-8.97h-18.47l-4.02,8.97h-3.92L618.96,204.21z M628.41,225.92
				l-7.71-17.26l-7.75,17.26H628.41z"/>
			<path class="st0" d="M650.71,224.18v-19.73h3.83v19.48c0,7.32,3.92,11.44,10.37,11.44c6.25,0,10.23-3.78,10.23-11.2v-19.73h3.83
				v19.43c0,9.89-5.67,15.03-14.15,15.03C656.43,238.91,650.71,233.77,650.71,224.18z"/>
			<path class="st0" d="M693.56,233.43l2.37-2.81c3.54,3.2,6.93,4.8,11.63,4.8c4.56,0,7.56-2.42,7.56-5.77v-0.1
				c0-3.15-1.7-4.94-8.82-6.45c-7.81-1.7-11.39-4.22-11.39-9.79v-0.1c0-5.33,4.7-9.26,11.15-9.26c4.94,0,8.48,1.4,11.92,4.17
				l-2.23,2.96c-3.15-2.57-6.3-3.68-9.79-3.68c-4.41,0-7.23,2.42-7.23,5.48v0.1c0,3.2,1.75,4.99,9.21,6.59
				c7.56,1.65,11.05,4.41,11.05,9.6v0.1c0,5.82-4.85,9.6-11.58,9.6C702.04,238.86,697.62,237.07,693.56,233.43z"/>
			<path class="st0" d="M734.56,204.45h24.52v3.49h-20.69v11.58h18.51v3.49h-18.51v11.87h20.94v3.49h-24.77V204.45z"/>
			<path class="st0" d="M794.47,204.45h4.17l9.69,28.26l9.31-28.35h3.15l9.31,28.35l9.69-28.26h4.02l-12.12,34.17h-3.25l-9.31-27.53
				l-9.35,27.53h-3.2L794.47,204.45z"/>
			<path class="st0" d="M858.5,204.45h24.52v3.49h-20.69v11.58h18.51v3.49h-18.51v11.87h20.94v3.49H858.5V204.45z"/>
			<path class="st0" d="M919.52,221.51v-0.1c0-9.6,7.17-17.55,17.16-17.55c6.16,0,9.84,2.18,13.23,5.38l-2.62,2.81
				c-2.86-2.71-6.06-4.65-10.66-4.65c-7.51,0-13.13,6.11-13.13,13.91v0.1c0,7.85,5.67,14.01,13.13,14.01c4.65,0,7.71-1.79,10.95-4.9
				l2.52,2.47c-3.54,3.59-7.41,5.96-13.57,5.96C926.74,238.96,919.52,231.25,919.52,221.51z"/>
			<path class="st0" d="M977.1,204.21h3.59l15.46,34.17h-4.12l-3.97-8.97h-18.47l-4.02,8.97h-3.92L977.1,204.21z M986.56,225.92
				l-7.71-17.26l-7.75,17.26H986.56z"/>
			<path class="st0" d="M1010.6,204.45h14.59c4.17,0,7.52,1.26,9.65,3.39c1.65,1.65,2.62,4.02,2.62,6.69v0.1
				c0,5.62-3.87,8.92-9.21,9.89l10.42,13.86h-4.7l-9.84-13.18h-9.69v13.18h-3.83V204.45z M1024.85,221.75
				c5.09,0,8.73-2.62,8.73-6.98v-0.1c0-4.17-3.2-6.69-8.68-6.69h-10.47v13.77H1024.85z"/>
			<path class="st0" d="M1053.4,204.45h24.52v3.49h-20.69v11.58h18.51v3.49h-18.51v11.87h20.94v3.49h-24.77V204.45z"/>
		</g>
	</g>
	<g>
		<g>
			<g>
				<path class="st0" d="M244.16,172.75l-17.07,17.07l-42.95-42.95l42.95-42.95l12.44,12.44l20.2-7.57L227.1,76.14l-70.7,70.73
					l70.7,70.7l37.24-37.24L244.16,172.75z"/>
			</g>
			<g>
				<path class="st0" d="M59.05,76.14l-32.62,32.65l20.18,7.57l12.44-12.44L102,146.86l-42.95,42.95l-17.07-17.07l-20.18,7.57
					l37.24,37.24l70.7-70.7L59.05,76.14z"/>
			</g>
		</g>
		<g>
			<g>
				<path class="st0" d="M143.14,165.53l-70.7,70.7l37.24,37.27l7.6-20.18l-17.09-17.09l42.95-42.95l42.98,42.95l-12.47,12.44
					l7.57,20.2l32.65-32.65L143.14,165.53z"/>
			</g>
			<g>
				<path class="st0" d="M181.22,26.5l-7.57,20.18l12.47,12.47l-42.98,42.95l-42.95-42.95l17.07-17.09l-7.57-20.18L72.44,59.15
					l70.7,70.7l70.73-70.7L181.22,26.5z"/>
			</g>
		</g>
		<g>
			<rect x="133.35" y="228.49" class="st0" width="19.61" height="66.4"/>
		</g>
		<g>
			<rect x="219.02" y="137.05" class="st0" width="66.4" height="19.61"/>
		</g>
		<g>
			<rect y="137.05" class="st0" width="66.4" height="19.61"/>
		</g>
		<g>
			<rect x="133.35" class="st0" width="19.61" height="66.4"/>
		</g>
	</g>
</g>
</svg>
