<svg id="Layer_1" data-name="Layer 1" xmlns="http://www.w3.org/2000/svg" viewBox="0 0 126.11 130.29"><defs><style>.cls-1{fill:#22829b;}</style></defs><polygon class="cls-1" points="107.88 76.33 100.34 83.87 81.36 64.89 100.34 45.91 105.83 51.41 114.76 48.06 100.34 33.64 69.1 64.89 100.34 96.13 116.79 79.67 107.88 76.33"/><polygon class="cls-1" points="26.09 33.64 11.68 48.06 20.59 51.41 26.09 45.91 45.07 64.89 26.09 83.87 18.55 76.33 9.63 79.67 26.09 96.13 57.33 64.89 26.09 33.64"/><polygon class="cls-1" points="63.24 73.14 32 104.37 48.46 120.84 51.82 111.93 44.27 104.37 63.24 85.4 82.23 104.37 76.72 109.87 80.07 118.8 94.49 104.37 63.24 73.14"/><polygon class="cls-1" points="80.07 11.71 76.72 20.63 82.23 26.13 63.24 45.11 44.27 26.13 51.81 18.58 48.46 9.67 32.01 26.13 63.24 57.37 94.49 26.13 80.07 11.71"/><rect class="cls-1" x="58.92" y="100.95" width="8.66" height="29.34"/><rect class="cls-1" x="96.77" y="60.55" width="29.34" height="8.66"/><rect class="cls-1" y="60.55" width="29.34" height="8.66"/><rect class="cls-1" x="58.92" width="8.66" height="29.34"/></svg>